<svg width="204" height="55" viewBox="0 0 204 55" fill="none" xmlns="http://www.w3.org/2000/svg">
<path d="M2.66087 45.0842V5.59687H32.2497V14.1117H12.1868V21.8282H22.777C26.6619 21.8282 28.6842 21.7217 31.2386 21.4024V29.6511C28.8438 30.2365 24.5864 30.2897 21.6063 30.2897H12.1868V45.0842H2.66087ZM36.2731 15.8146H45.4797V45.0842H36.2731V15.8146ZM45.4797 12.728H36.2731V5.59687H45.4797V12.728ZM66.4956 15.5485V24.3294H65.6441C63.4622 24.3294 61.1738 24.9148 59.258 26.2984V45.0842H49.7853V15.8146H59.258V17.9433C61.227 16.4532 62.9832 15.8146 65.5376 15.5485H66.4956ZM86.4176 45.5631C83.597 46.3614 80.1379 46.255 76.1466 45.6163C73.3793 45.0842 70.2395 43.7005 67.4722 41.7847L71.1974 34.5471C74.6565 36.3565 77.9028 37.687 80.9894 38.1127C82.9584 38.5384 83.3842 36.1437 81.628 35.3986C79.3396 34.281 76.3063 33.6957 72.6343 31.4605C69.1219 29.3318 67.3657 24.968 69.1751 20.7106C70.5056 17.1983 73.7518 14.9099 79.6589 14.697C84.3953 14.5374 88.4398 15.921 92.4311 19.0077L87.6416 25.6598C84.7146 23.8504 82.4263 23.1054 80.1911 22.9457C78.9671 22.7861 78.2753 24.8616 79.5525 25.5534C81.7344 26.7774 84.8743 27.416 87.8544 29.0125C91.7925 31.0348 93.6551 34.1746 93.0697 38.2723C92.5908 42.2637 90.0896 44.4988 86.4176 45.5631ZM108.75 32.791C108.75 35.0261 109.016 36.0904 110.187 36.5162C110.985 36.7823 111.677 36.729 113.38 36.1437L114.923 44.2859C112.156 45.5631 107.686 46.0421 104.546 44.8181C100.874 43.328 99.5435 40.0817 99.5435 34.4939V24.1165H94.754V15.8146H99.5435V5.59687H108.75V15.8146H114.711V24.1165H108.75V32.791ZM184.28 45.5099C176.564 45.5099 170.337 40.9332 170.444 30.609C170.603 20.6042 176.351 14.9099 184.121 15.2824C187.58 15.3889 190.453 16.7725 192.103 18.5287V5.59687H201.257V45.0842H192.103V42.4765C190.294 44.3391 187.42 45.5099 184.28 45.5099ZM186.143 37.3677C189.655 37.1548 191.784 34.4407 191.784 31.1412C191.784 26.4581 189.07 23.4247 185.398 23.4247C182.63 23.4247 179.544 25.5002 179.544 30.343C179.544 35.7179 182.843 37.5805 186.143 37.3677Z" fill="black"/>
<path d="M153.846 45.0842H143.522L140.701 37.8998H128.674L126.067 45.0842H115.796L130.43 5.59687H138.786L153.846 45.0842ZM134.794 17.145L131.229 29.385H138.147L134.794 17.145ZM156.804 5.59687H166.277V45.0842H156.804V5.59687Z" fill="#FF0000"/>
<g clip-path="url(#clip0_81_464)">
<circle cx="184.487" cy="31.3392" r="9.46087" fill="white"/>
<mask id="mask0_81_464" style="mask-type:luminance" maskUnits="userSpaceOnUse" x="170" y="17" width="27" height="27">
<path d="M183.896 42.5739C190.427 42.5739 195.722 37.2792 195.722 30.7478C195.722 24.2165 190.427 18.9218 183.896 18.9218C177.364 18.9218 172.07 24.2165 172.07 30.7478C172.07 37.2792 177.364 42.5739 183.896 42.5739Z" fill="white" stroke="white" stroke-width="2.36522" stroke-linecap="round" stroke-linejoin="round"/>
<path d="M185.67 23.6522H182.122V28.974H176.8V32.5218H182.122V37.8435H185.67V32.5218H190.991V28.974H185.67V23.6522Z" fill="black" stroke="black" stroke-width="2.36522" stroke-linecap="round" stroke-linejoin="round"/>
</mask>
<g mask="url(#mask0_81_464)">
<path d="M169.704 16.5565H198.087V44.9391H169.704V16.5565Z" fill="black"/>
</g>
</g>
<defs>
<clipPath id="clip0_81_464">
<rect width="28.3826" height="28.3826" fill="white" transform="translate(170.296 17.1478)"/>
</clipPath>
</defs>
</svg>
