<svg width="264" height="136" viewBox="0 0 264 136" fill="none" xmlns="http://www.w3.org/2000/svg">
<path d="M38.7906 96.55C40.7906 97.6167 42.2073 99.0833 43.0406 100.95C43.9073 102.817 44.2406 105.05 44.0406 107.65C43.8406 110.983 42.8906 113.467 41.1906 115.1C39.524 116.733 36.9573 117.55 33.4906 117.55C32.5906 117.55 31.7573 117.567 30.9906 117.6C30.2573 117.6 29.5573 117.55 28.8906 117.45C28.224 117.35 27.5406 117.183 26.8406 116.95C26.1406 116.683 25.3906 116.283 24.5906 115.75C23.024 114.717 21.9406 113.367 21.3406 111.7C20.774 110.033 20.4906 108.317 20.4906 106.55C20.4906 104.783 20.8073 103.133 21.4406 101.6C22.074 100.033 23.1073 98.7 24.5406 97.6C25.7073 96.6667 27.0073 95.9833 28.4406 95.55C29.9073 95.1167 31.374 94.9667 32.8406 95.1C33.5073 95.1667 34.074 95.2333 34.5406 95.3C35.0406 95.3333 35.5073 95.4 35.9406 95.5C36.374 95.6 36.8073 95.7333 37.2406 95.9C37.674 96.0667 38.1906 96.2833 38.7906 96.55ZM56.1406 129.5C56.1406 129.5 56.2406 129.533 56.4406 129.6C56.674 129.667 56.924 129.783 57.1906 129.95C57.4573 130.083 57.7073 130.283 57.9406 130.55C58.174 130.783 58.324 131.067 58.3906 131.4C58.5573 132.667 58.3406 133.65 57.7406 134.35C57.3406 134.817 56.9073 135.1 56.4406 135.2C55.974 135.3 55.724 135.35 55.6906 135.35H29.6406C28.274 135.35 27.2073 135.133 26.4406 134.7C25.674 134.3 25.2906 133.717 25.2906 132.95V126C25.2906 125.8 25.274 125.55 25.2406 125.25C25.2406 124.95 25.2406 124.633 25.2406 124.3C25.2406 123.933 25.2406 123.6 25.2406 123.3C25.274 123 25.2906 122.75 25.2906 122.55C25.3573 121.85 25.6906 121.283 26.2906 120.85C26.8906 120.417 27.574 120.2 28.3406 120.2C28.5073 120.2 28.7073 120.217 28.9406 120.25C29.2073 120.25 29.424 120.283 29.5906 120.35C30.024 120.483 30.374 120.717 30.6406 121.05C30.9073 121.35 31.1073 121.7 31.2406 122.1C31.374 122.5 31.4573 122.933 31.4906 123.4C31.524 123.833 31.5573 124.233 31.5906 124.6C31.5906 124.733 31.5906 125.05 31.5906 125.55C31.5906 126.017 31.5906 126.533 31.5906 127.1C31.5906 127.633 31.5906 128.133 31.5906 128.6C31.5906 129.033 31.5906 129.3 31.5906 129.4C31.6906 129.433 31.9573 129.483 32.3906 129.55C32.8573 129.583 33.7073 129.6 34.9406 129.6C36.0073 129.6 36.9573 129.583 37.7906 129.55C38.624 129.517 39.0573 129.5 39.0906 129.5H56.1406ZM56.7906 96.95C56.8906 97.1833 56.974 97.5333 57.0406 98C57.1073 98.4667 57.1573 98.95 57.1906 99.45C57.224 99.9167 57.2406 100.35 57.2406 100.75C57.2406 101.15 57.2406 101.383 57.2406 101.45V118.7C57.2406 118.733 57.224 118.867 57.1906 119.1C57.1573 119.3 57.074 119.55 56.9406 119.85C56.8406 120.15 56.674 120.45 56.4406 120.75C56.2406 121.05 55.974 121.3 55.6406 121.5C55.174 121.8 54.6906 121.95 54.1906 121.95C53.524 121.95 52.9406 121.75 52.4406 121.35C52.0406 121.117 51.7406 120.783 51.5406 120.35C51.3073 119.95 51.1573 119.55 51.0906 119.15C51.024 118.75 50.974 118.367 50.9406 118V115.55H50.7906C50.2906 115.517 49.7406 115.5 49.1406 115.5C48.574 115.467 48.0073 115.417 47.4406 115.35C46.9073 115.283 46.424 115.167 45.9906 115C45.5573 114.8 45.2406 114.533 45.0406 114.2C44.8073 113.833 44.6906 113.4 44.6906 112.9C44.724 112.367 44.774 111.917 44.8406 111.55C44.9406 111.15 45.1406 110.817 45.4406 110.55C45.7406 110.283 46.2406 110.067 46.9406 109.9C47.074 109.867 47.324 109.85 47.6906 109.85C48.0906 109.817 48.4906 109.783 48.8906 109.75C49.324 109.717 49.724 109.7 50.0906 109.7C50.4906 109.667 50.774 109.65 50.9406 109.65V106.4C50.4406 106.4 49.874 106.417 49.2406 106.45C48.6406 106.45 48.0573 106.433 47.4906 106.4C46.9573 106.333 46.4573 106.233 45.9906 106.1C45.5573 105.967 45.2406 105.733 45.0406 105.4C44.9406 105.233 44.8573 105.017 44.7906 104.75C44.7573 104.483 44.724 104.217 44.6906 103.95C44.6906 103.65 44.7073 103.367 44.7406 103.1C44.774 102.833 44.8073 102.6 44.8406 102.4C44.9406 102.033 45.1406 101.717 45.4406 101.45C45.7406 101.183 46.2406 100.967 46.9406 100.8C47.0406 100.767 47.2406 100.75 47.5406 100.75C47.874 100.717 48.2406 100.7 48.6406 100.7C49.0406 100.667 49.4406 100.65 49.8406 100.65C50.274 100.617 50.6406 100.6 50.9406 100.6C50.9073 100.3 50.9073 99.8833 50.9406 99.35C50.974 98.8167 51.024 98.4167 51.0906 98.15C51.1906 97.8833 51.274 97.6167 51.3406 97.35C51.4073 97.0833 51.5573 96.8167 51.7906 96.55C52.0906 96.2167 52.4906 95.9833 52.9906 95.85C53.524 95.6833 54.0906 95.6333 54.6906 95.7C55.7573 95.8667 56.4573 96.2833 56.7906 96.95ZM38.0906 108.2C38.0906 107.467 38.0573 106.783 37.9906 106.15C37.924 105.483 37.774 104.883 37.5406 104.35C37.3406 103.783 37.024 103.283 36.5906 102.85C36.1573 102.417 35.5906 102.067 34.8906 101.8C34.124 101.533 33.2906 101.4 32.3906 101.4C31.4906 101.4 30.6406 101.567 29.8406 101.9C29.0406 102.2 28.3406 102.683 27.7406 103.35C27.1406 103.983 26.7573 104.817 26.5906 105.85C26.4906 106.55 26.4906 107.267 26.5906 108C26.724 108.7 26.974 109.35 27.3406 109.95C27.7406 110.517 28.274 111 28.9406 111.4C29.6406 111.8 30.5073 112.05 31.5406 112.15C32.2406 112.217 32.9406 112.217 33.6406 112.15C34.3406 112.05 34.9906 111.85 35.5906 111.55C36.1906 111.25 36.7073 110.833 37.1406 110.3C37.574 109.733 37.8906 109.033 38.0906 108.2ZM71.6945 110.05C71.5945 110.05 71.5445 110.017 71.5445 109.95C71.2112 109.683 70.9779 109.3 70.8445 108.8C70.7445 108.267 70.6945 107.817 70.6945 107.45C70.6612 106.85 70.6112 106.25 70.5445 105.65C70.5112 105.05 70.4945 104.467 70.4945 103.9C70.4945 103.033 70.4945 102.133 70.4945 101.2C70.4945 100.233 70.5779 99.3333 70.7445 98.5C70.8445 97.9667 71.0112 97.55 71.2445 97.25C71.4779 96.9167 71.8445 96.65 72.3445 96.45C72.8112 96.2833 73.2779 96.1667 73.7445 96.1C74.2112 96.0333 74.6779 95.9667 75.1445 95.9C75.7112 95.8333 76.2945 95.8167 76.8945 95.85C77.4945 95.8833 78.0945 95.9 78.6945 95.9H88.1945C89.0279 95.9 89.6612 95.9 90.0945 95.9C90.5612 95.9 90.9779 95.9 91.3445 95.9C91.7112 95.9 92.1112 95.9 92.5445 95.9C93.0112 95.8667 93.6612 95.85 94.4945 95.85C94.7945 95.85 95.0779 95.85 95.3445 95.85C95.6445 95.85 95.9445 95.8667 96.2445 95.9C96.8779 95.9333 97.5279 95.9833 98.1945 96.05C98.8612 96.1167 99.4779 96.2833 100.045 96.55C100.711 96.8167 101.161 97.2667 101.395 97.9C101.628 98.5 101.761 99.1333 101.795 99.8C101.861 100.567 101.861 101.383 101.795 102.25C101.761 103.117 101.745 103.933 101.745 104.7C101.711 105.367 101.678 106.033 101.645 106.7C101.645 107.367 101.561 108.033 101.395 108.7C101.295 109.067 101.178 109.4 101.045 109.7C100.911 109.967 100.645 110.167 100.245 110.3C99.8779 110.433 99.4945 110.517 99.0945 110.55C98.6945 110.583 98.3112 110.6 97.9445 110.6H76.3445C76.0112 110.6 75.6779 110.6 75.3445 110.6C75.0445 110.567 74.7279 110.533 74.3945 110.5C73.9612 110.467 73.4945 110.45 72.9945 110.45C72.4945 110.45 72.0612 110.317 71.6945 110.05ZM99.4445 119.6C97.7779 119.667 96.2445 119.717 94.8445 119.75C93.4445 119.783 91.8945 119.8 90.1945 119.8C90.1612 120.5 90.1279 121.2 90.0945 121.9C90.0612 122.6 90.0445 123.433 90.0445 124.4C89.9779 124.767 89.8112 125.083 89.5445 125.35C89.3112 125.617 89.0279 125.85 88.6945 126.05C88.3612 126.25 87.9945 126.4 87.5945 126.5C87.2279 126.567 86.8779 126.6 86.5445 126.6C85.5445 126.533 84.7612 126.283 84.1945 125.85C83.6612 125.417 83.3445 124.7 83.2445 123.7C83.1779 123.033 83.1612 122.367 83.1945 121.7C83.2612 121.033 83.2945 120.367 83.2945 119.7C82.5279 119.7 81.5112 119.7 80.2445 119.7C78.9779 119.667 77.6612 119.65 76.2945 119.65C74.9279 119.617 73.6112 119.583 72.3445 119.55C71.1112 119.517 70.1445 119.467 69.4445 119.4C68.9112 119.333 68.4779 119.267 68.1445 119.2C67.8445 119.1 67.4779 118.85 67.0445 118.45C66.8112 118.25 66.6445 117.983 66.5445 117.65C66.4445 117.317 66.3945 116.967 66.3945 116.6C66.3945 115.9 66.6112 115.333 67.0445 114.9C67.2779 114.633 67.5945 114.433 67.9945 114.3C68.3945 114.167 68.7779 114.067 69.1445 114C69.5112 113.933 69.8279 113.9 70.0945 113.9C70.3945 113.9 70.5612 113.9 70.5945 113.9H99.1945C99.6945 113.9 100.195 113.9 100.695 113.9C101.195 113.9 101.678 113.917 102.145 113.95C102.611 113.983 103.061 114.05 103.495 114.15C103.961 114.25 104.378 114.467 104.745 114.8C105.111 115.067 105.311 115.367 105.345 115.7C105.411 116.033 105.445 116.4 105.445 116.8C105.445 117.3 105.295 117.75 104.995 118.15C104.728 118.55 104.345 118.833 103.845 119C103.178 119.267 102.445 119.433 101.645 119.5C100.878 119.533 100.145 119.567 99.4445 119.6ZM100.845 129.05C100.878 129.05 100.995 129.083 101.195 129.15C101.395 129.217 101.611 129.333 101.845 129.5C102.111 129.633 102.345 129.833 102.545 130.1C102.778 130.333 102.928 130.617 102.995 130.95C103.195 132.217 102.995 133.2 102.395 133.9C102.028 134.367 101.628 134.65 101.195 134.75C100.761 134.85 100.528 134.9 100.495 134.9H73.1945C71.9279 134.9 70.9279 134.683 70.1945 134.25C69.4612 133.85 69.0945 133.267 69.0945 132.5V128.05C69.0279 127.317 69.0279 126.567 69.0945 125.8C69.1612 125.1 69.4279 124.533 69.8945 124.1C70.3612 123.667 70.9445 123.45 71.6445 123.45C71.8112 123.45 72.0279 123.467 72.2945 123.5C72.5945 123.5 72.8279 123.533 72.9945 123.6C73.4279 123.733 73.7612 123.933 73.9945 124.2C74.2279 124.467 74.4112 124.783 74.5445 125.15C74.6779 125.483 74.7612 125.85 74.7945 126.25C74.8279 126.617 74.8612 126.983 74.8945 127.35C74.8945 127.617 74.9112 127.9 74.9445 128.2C74.9779 128.467 75.0279 128.717 75.0945 128.95C75.1612 128.983 75.4612 129.033 75.9945 129.1C76.5612 129.133 77.4279 129.15 78.5945 129.15C79.5945 129.15 80.4779 129.133 81.2445 129.1C82.0445 129.067 82.4612 129.05 82.4945 129.05H100.845ZM76.4445 104.2C76.4445 104.367 76.4445 104.533 76.4445 104.7C76.4779 104.833 76.5279 104.933 76.5945 105C76.6612 105.067 76.7779 105.117 76.9445 105.15C77.1112 105.15 77.2779 105.15 77.4445 105.15C77.6112 105.15 77.8112 105.133 78.0445 105.1H91.1945C91.6612 105.133 92.1112 105.167 92.5445 105.2C92.9112 105.233 93.2945 105.25 93.6945 105.25C94.1279 105.25 94.4945 105.217 94.7945 105.15C95.1612 105.117 95.3612 105.033 95.3945 104.9C95.4612 104.733 95.5279 104.5 95.5945 104.2C95.6279 103.933 95.6445 103.567 95.6445 103.1C95.6445 102.633 95.5445 102.267 95.3445 102C95.1112 101.733 94.7779 101.6 94.3445 101.6C93.9112 101.567 93.5445 101.567 93.2445 101.6H88.6945C88.5945 101.6 88.1945 101.6 87.4945 101.6C86.7945 101.6 86.0279 101.6 85.1945 101.6C84.3945 101.6 83.6445 101.6 82.9445 101.6C82.2445 101.6 81.8445 101.6 81.7445 101.6C81.0445 101.533 80.3445 101.517 79.6445 101.55C78.9445 101.55 78.2279 101.567 77.4945 101.6C77.1945 101.6 76.9779 101.617 76.8445 101.65C76.7112 101.65 76.6112 101.8 76.5445 102.1C76.4779 102.333 76.4445 102.617 76.4445 102.95C76.4445 103.283 76.4445 103.55 76.4445 103.75V104.2ZM147.709 131.35C148.242 131.383 148.709 131.517 149.109 131.75C149.509 131.95 149.792 132.333 149.959 132.9C150.126 133.5 150.109 134.017 149.909 134.45C149.709 134.917 149.292 135.267 148.659 135.5C148.259 135.667 147.842 135.767 147.409 135.8C147.009 135.833 146.642 135.85 146.309 135.85H123.859C123.192 135.85 122.492 135.85 121.759 135.85C121.026 135.85 120.292 135.833 119.559 135.8C118.659 135.767 118.026 135.467 117.659 134.9C117.326 134.333 117.126 133.667 117.059 132.9L116.859 129.45C116.826 129.083 116.826 128.6 116.859 128C116.926 127.367 117.109 126.867 117.409 126.5C117.876 126 118.409 125.683 119.009 125.55C119.609 125.417 120.276 125.35 121.009 125.35H122.559C122.726 125.35 122.859 125.367 122.959 125.4C123.059 125.4 123.159 125.4 123.259 125.4H143.759V123.4H122.759C122.592 123.4 122.409 123.4 122.209 123.4C122.042 123.367 121.859 123.367 121.659 123.4H120.459C119.926 123.4 119.342 123.367 118.709 123.3C118.076 123.233 117.609 122.967 117.309 122.5C117.109 122.133 116.976 121.8 116.909 121.5C116.842 121.2 116.876 120.85 117.009 120.45C117.142 120.017 117.442 119.7 117.909 119.5C118.376 119.267 118.892 119.1 119.459 119C120.059 118.9 120.676 118.85 121.309 118.85C121.942 118.85 122.492 118.85 122.959 118.85H144.259C145.959 118.85 147.259 119.15 148.159 119.75C149.059 120.317 149.509 121.2 149.509 122.4V126.4C149.509 126.867 149.392 127.317 149.159 127.75C148.959 128.183 148.592 128.583 148.059 128.95C147.626 129.217 147.192 129.367 146.759 129.4C146.326 129.4 145.892 129.4 145.459 129.4H123.009V131.35H147.709ZM132.359 110.1C132.926 110.767 133.492 111.467 134.059 112.2C134.626 112.933 135.009 113.667 135.209 114.4C135.276 114.733 135.276 115.083 135.209 115.45C135.142 115.817 134.959 116.133 134.659 116.4C134.159 116.733 133.626 116.9 133.059 116.9C132.426 116.9 131.809 116.75 131.209 116.45C130.642 116.15 130.176 115.85 129.809 115.55C129.242 115.05 128.726 114.55 128.259 114.05C127.792 113.517 127.326 113 126.859 112.5C126.492 112.1 126.092 111.7 125.659 111.3C125.226 110.9 124.842 110.467 124.509 110L119.559 115.45C119.026 116.017 118.459 116.417 117.859 116.65C117.259 116.85 116.692 116.95 116.159 116.95C115.992 116.95 115.742 116.917 115.409 116.85C114.776 116.683 114.342 116.383 114.109 115.95C113.909 115.583 113.842 115.167 113.909 114.7C113.976 114.233 114.109 113.817 114.309 113.45C114.542 113.05 114.792 112.683 115.059 112.35C115.359 112.017 115.659 111.667 115.959 111.3C116.826 110.333 117.659 109.333 118.459 108.3C119.292 107.233 120.192 106.2 121.159 105.2V102.95C120.892 102.983 120.559 103 120.159 103C119.759 102.967 119.276 102.95 118.709 102.95C118.342 102.95 117.926 102.967 117.459 103C116.992 103.033 116.526 103.017 116.059 102.95C115.626 102.883 115.226 102.75 114.859 102.55C114.492 102.317 114.209 101.95 114.009 101.45C113.842 101.083 113.742 100.667 113.709 100.2C113.676 99.7333 113.709 99.3 113.809 98.9C113.909 98.4333 114.159 98.1167 114.559 97.95C114.992 97.75 115.392 97.6167 115.759 97.55C116.092 97.4833 116.392 97.45 116.659 97.45C116.759 97.45 116.859 97.4667 116.959 97.5C117.059 97.5 117.159 97.5 117.259 97.5H121.309C121.376 96.7333 121.526 96.0167 121.759 95.35C122.026 94.65 122.526 94.1667 123.259 93.9C123.826 93.7 124.342 93.65 124.809 93.75C125.309 93.85 125.742 94.05 126.109 94.35C126.476 94.65 126.776 95.0333 127.009 95.5C127.242 95.9667 127.392 96.45 127.459 96.95C127.492 97.05 127.509 97.15 127.509 97.25C127.542 97.3167 127.559 97.4 127.559 97.5H130.409C131.576 97.5 132.509 97.5833 133.209 97.75C133.909 97.8833 134.492 98.2833 134.959 98.95C135.092 99.15 135.192 99.4333 135.259 99.8C135.326 100.133 135.326 100.483 135.259 100.85C135.226 101.183 135.142 101.5 135.009 101.8C134.876 102.1 134.709 102.317 134.509 102.45C134.242 102.55 133.942 102.667 133.609 102.8C133.309 102.9 133.026 102.95 132.759 102.95C132.359 102.983 131.992 103 131.659 103C131.359 102.967 131.009 102.95 130.609 102.95C130.009 102.95 129.542 102.967 129.209 103C128.876 103 128.476 102.983 128.009 102.95C128.009 103.383 128.009 103.633 128.009 103.7C128.009 103.767 128.009 103.817 128.009 103.85C128.009 103.883 128.009 103.983 128.009 104.15C128.009 104.283 128.009 104.633 128.009 105.2C128.176 105.333 128.392 105.6 128.659 106C128.926 106.4 129.192 106.733 129.459 107C129.726 107.267 130.009 107.567 130.309 107.9C130.609 108.2 130.926 108.533 131.259 108.9C131.492 109.133 131.692 109.35 131.859 109.55C132.026 109.75 132.192 109.933 132.359 110.1ZM149.459 113.3C149.426 113.667 149.376 114.05 149.309 114.45C149.242 114.817 149.109 115.183 148.909 115.55C148.676 115.983 148.392 116.3 148.059 116.5C147.826 116.667 147.526 116.8 147.159 116.9C146.792 117 146.459 117.05 146.159 117.05C145.659 117.05 145.192 116.917 144.759 116.65C144.292 116.383 143.926 115.967 143.659 115.4C143.392 114.833 143.259 114.317 143.259 113.85V109.05C142.959 109.05 142.609 109.05 142.209 109.05C141.809 109.05 141.409 109.05 141.009 109.05C140.609 109.017 140.226 109 139.859 109C139.526 108.967 139.276 108.933 139.109 108.9C138.142 108.767 137.342 108.467 136.709 108C136.109 107.5 135.892 106.7 136.059 105.6C136.192 104.867 136.409 104.317 136.709 103.95C137.042 103.55 137.576 103.333 138.309 103.3C138.542 103.3 138.759 103.3 138.959 103.3C139.192 103.267 139.442 103.25 139.709 103.25C140.109 103.25 140.692 103.25 141.459 103.25C142.226 103.217 142.826 103.2 143.259 103.2V99.45C143.259 99.3833 143.259 99.2167 143.259 98.95C143.292 98.6833 143.309 98.4 143.309 98.1C143.342 97.7667 143.392 97.45 143.459 97.15C143.526 96.8167 143.609 96.55 143.709 96.35C143.876 96.05 144.126 95.8 144.459 95.6C144.826 95.3667 145.242 95.2167 145.709 95.15C146.276 95.0833 146.792 95.1167 147.259 95.25C147.759 95.3833 148.142 95.6 148.409 95.9C148.876 96.4 149.176 96.9167 149.309 97.45C149.409 97.7833 149.459 98.2667 149.459 98.9C149.492 99.5333 149.492 100.033 149.459 100.4V103.1C149.459 104.1 149.476 105.017 149.509 105.85C149.542 106.65 149.559 107.45 149.559 108.25C149.592 109.017 149.592 109.8 149.559 110.6C149.559 111.4 149.526 112.3 149.459 113.3Z" fill="#FF0056"/>
<path d="M247.622 63.1589C247.622 88.998 226.046 109.943 199.407 109.943C195.427 109.943 191.572 109.477 187.874 108.59C186.753 108.321 185.582 108.424 184.55 108.938L173.998 114.189C171.274 115.545 168.068 113.573 168.068 110.54V100.884C168.068 99.504 167.448 98.2181 166.426 97.2872C157.039 88.7461 151.193 76.6183 151.193 63.1589C151.193 37.3198 172.769 16.375 199.407 16.375C226.046 16.375 247.622 37.3198 247.622 63.1589Z" fill="url(#paint0_radial_46_875)"/>
<path opacity="0.07" fill-rule="evenodd" clip-rule="evenodd" d="M213.034 55.0312C215.625 52.1446 215.625 47.77 213.034 44.8833L206.204 37.2724C203.773 34.5633 199.528 34.5633 197.097 37.2724V37.2724L191.762 42.9619L188.542 46.5497L183.436 52.4942V52.4942C180.846 55.3809 180.846 59.7555 183.436 62.6421L190.267 70.253C192.698 72.9622 196.943 72.9622 199.374 70.253V70.253L201.008 68.5159C201.282 68.2248 201.599 67.9776 201.949 67.7831V67.7831C203.526 66.904 205.502 67.2258 206.719 68.5603L220.103 83.2341C221.462 84.7233 223.809 84.7138 225.155 83.2137V83.2137C226.31 81.9272 226.318 79.9797 225.173 78.6839L211.591 63.302C210.307 61.8474 210.02 59.7642 210.865 58.0169V58.0169C211.009 57.7186 211.183 57.4359 211.385 57.1733L213.034 55.0312V55.0312ZM197.834 86.0158C199.815 86.0158 201.422 84.4094 201.422 82.4279V82.4279C201.422 80.4464 199.815 78.8401 197.834 78.8401H172.811C170.83 78.8401 169.223 80.4464 169.223 82.4279V82.4279C169.223 84.4094 170.83 86.0158 172.811 86.0158H197.834Z" fill="black"/>
<path fill-rule="evenodd" clip-rule="evenodd" d="M212.622 56.0069C215.141 53.2004 215.141 48.9473 212.622 46.1408L205.982 38.7413C203.618 36.1075 199.491 36.1074 197.128 38.7413V38.7413L191.941 44.2728L188.811 47.761L183.847 53.5404V53.5404C181.328 56.3468 181.328 60.5999 183.847 63.4064L190.487 70.8059C192.851 73.4398 196.977 73.4398 199.341 70.8059V70.8059L200.93 69.1171C201.197 68.834 201.505 68.5937 201.845 68.4046V68.4046C203.379 67.5499 205.299 67.8628 206.482 69.1602L219.495 83.4264C220.816 84.8743 223.098 84.865 224.406 83.4066V83.4066C225.529 82.1558 225.537 80.2624 224.424 79.0026L211.219 64.0479C209.971 62.6337 209.692 60.6084 210.513 58.9096V58.9096C210.653 58.6196 210.823 58.3447 211.019 58.0895L212.622 56.0069V56.0069ZM197.844 86.1308C199.771 86.1308 201.332 84.5691 201.332 82.6426V82.6426C201.332 80.7162 199.771 79.1545 197.844 79.1545H173.516C171.59 79.1545 170.028 80.7162 170.028 82.6426V82.6426C170.028 84.5691 171.59 86.1308 173.516 86.1308H197.844Z" fill="white"/>
<path d="M191.842 58.9594C194.641 61.8512 203.766 60.861 203.766 60.861C203.766 60.861 205.052 51.7736 202.253 48.8817C200.707 47.2846 198.159 47.2432 196.561 48.7892C195.616 49.7049 195.215 50.9722 195.367 52.1852C194.16 51.9936 192.881 52.3524 191.935 53.2682C190.337 54.8142 190.296 57.3622 191.842 58.9594Z" fill="#FF0056"/>
<defs>
<radialGradient id="paint0_radial_46_875" cx="0" cy="0" r="1" gradientUnits="userSpaceOnUse" gradientTransform="translate(168.278 109.89) scale(114.78 114.23)">
<stop stop-color="#FF0056"/>
<stop offset="0.079" stop-color="#FF0056"/>
<stop offset="0.23" stop-color="#FF0056"/>
<stop offset="0.351" stop-color="#FF0056"/>
<stop offset="0.428" stop-color="#FF0056"/>
<stop offset="0.754" stop-color="#FF0056"/>
<stop offset="0.946" stop-color="#FF0056"/>
</radialGradient>
</defs>
</svg>
